<?xml version="1.0" encoding="UTF-8"?>
<svg width="30px" height="24px" viewBox="0 0 30 24" version="1.1" xmlns="http://www.w3.org/2000/svg" xmlns:xlink="http://www.w3.org/1999/xlink">
    <!-- Generator: Sketch 64 (93537) - https://sketch.com -->
    <title>icon/30x24/quotation</title>
    <desc>Created with Sketch.</desc>
    <g id="icon/30x24/quotation" stroke="none" stroke-width="1" fill="none" fill-rule="evenodd">
        <path d="M24.0142518,24 C25.7244656,24 27.1496437,23.4336283 28.2897862,22.4424779 C29.4299287,21.380531 30,20.0353982 30,18.4070796 C30,16.7787611 29.4299287,15.4336283 28.432304,14.3716814 C27.2921615,13.3097345 26.0095012,12.8141593 24.5130641,12.8141593 C23.6579572,12.8141593 23.087886,12.8849558 22.7315914,13.0973451 C22.6603325,11.3982301 23.3016627,9.69911504 24.584323,8.14159292 C25.8669834,6.44247788 27.5059382,5.30973451 29.5011876,4.67256637 L29.5011876,0 C25.7244656,0.991150442 22.7315914,2.90265487 20.5938242,5.73451327 C18.3847981,8.49557522 17.3159145,11.7522124 17.3159145,15.5752212 C17.3159145,17.9823009 17.8859857,20.0353982 19.1686461,21.5929204 C20.4513064,23.1504425 22.0190024,24 24.0142518,24 Z M6.69833729,24 C8.40855107,24 9.90498812,23.4336283 11.0451306,22.4424779 C12.1140143,21.380531 12.6840855,20.0353982 12.6840855,18.4070796 C12.6840855,16.7787611 12.1140143,15.4336283 11.0451306,14.3716814 C9.97624703,13.3097345 8.6935867,12.8141593 7.19714964,12.8141593 C6.34204276,12.8141593 5.7719715,12.8849558 5.41567696,13.0973451 C5.34441805,11.3982301 5.98574822,9.69911504 7.33966746,8.14159292 C8.62232779,6.44247788 10.1900238,5.30973451 12.1852732,4.67256637 L12.1852732,0 C8.40855107,0.991150442 5.41567696,2.90265487 3.27790974,5.73451327 C1.06888361,8.49557522 0,11.7522124 0,15.5752212 C0,17.9823009 0.641330166,20.0353982 1.9239905,21.5929204 C3.13539192,23.1504425 4.70308789,24 6.69833729,24 Z" id="“" fill="#D0B8F3"></path>
    </g>
</svg>