<?xml version="1.0" encoding="UTF-8"?>
<svg width="48px" height="48px" viewBox="0 0 48 48" version="1.1" xmlns="http://www.w3.org/2000/svg" xmlns:xlink="http://www.w3.org/1999/xlink">
    <!-- Generator: Sketch 64 (93537) - https://sketch.com -->
    <title>icon/48x48/anonymous-active</title>
    <desc>Created with Sketch.</desc>
    <g id="icon/48x48/anonymous-active" stroke="none" stroke-width="1" fill="none" fill-rule="evenodd">
        <circle id="Oval" fill="#D0B8F3" cx="24" cy="24" r="24"></circle>
        <path d="M42,16.8 C42,16.32 41.6047008,16 41.2094017,16 L31.4059829,16 C28.0854701,16 25.1602564,17.84 23.7371795,20.72 C22.3141026,17.84 19.3888889,16 16.0683761,16 L6.10683766,16 C5.63247868,16 5.31623934,16.4 5.31623934,16.8 L5.31623934,19.04 C5.31623934,19.52 5.7115385,19.84 6.10683766,19.84 C6.50213681,19.84 6.89743593,19.44 6.89743593,19.04 L6.89743593,17.6 L15.9102564,17.6 C19.7051282,17.6 22.7884616,20.56 22.7884616,24.24 C22.7884616,24.72 23.1837607,25.04 23.5790598,25.04 C24.0534188,25.04 24.3696581,24.64 24.3696581,24.24 C24.3696581,20.56 27.4529915,17.6 31.2478633,17.6 L40.3397436,17.6 L40.3397436,22.08 C40.3397436,25.76 37.2564103,28.72 33.4615385,28.72 L31.3269231,28.72 C28.8760684,28.72 26.5833333,29.76 25.0021368,31.68 C24.6858975,32.08 24.1324786,32.32 23.6581197,32.32 C23.1047009,32.32 22.6303419,32.08 22.3141026,31.68 C20.732906,29.76 18.5192308,28.72 15.9893163,28.72 L13.8547009,28.72 C11.5619658,28.72 9.42735044,27.6 8.16239318,25.76 L8.16239318,25.68 C8.16239318,25.68 8.16239318,25.6 8.08333337,25.6 C7.84615388,25.2 7.29273509,25.04 6.89743593,25.2 C6.34401714,25.44 6.34401714,25.92 6.50213678,26.32 C6.50213678,26.4 6.50213678,26.4 6.58119663,26.48 C8.16239322,28.96 10.8504274,30.4 13.8547009,30.4 L15.9893163,30.4 C17.965812,30.4 19.7051282,31.2 21.0491453,32.8 C21.681624,33.6 22.6303419,34 23.6581197,34 C24.6858975,34 25.6346154,33.52 26.267094,32.8 C27.5320513,31.28 29.3504274,30.4 31.3269231,30.4 L33.4615385,30.4 C36.3867521,30.4 38.9957265,28.96 40.5769231,26.56 C40.6559829,26.48 41.9209402,24.48 41.9209402,22.72 C42,20.56 42,16.88 42,16.8 Z M13.9337607,26.4 C14.724359,26.64 15.5149573,26.8 16.3846154,26.8 C17.8076923,26.8 19.2307693,26.4 20.5747864,25.6 C20.8910257,25.44 21.0491453,24.96 20.8910257,24.64 C20.0213675,22.48 18.3611111,20.88 16.3055556,20.16 C14.25,19.44 11.8782052,19.68 9.74358978,20.96 C9.34829062,21.12 9.19017099,21.6 9.34829062,21.92 C10.2970086,24.08 11.8782052,25.68 13.9337607,26.4 L13.9337607,26.4 Z M11.1666667,22 C12.6688034,21.28 14.3290598,21.2 15.8311966,21.68 C17.2542735,22.16 18.440171,23.2 19.1517094,24.56 C17.6495727,25.28 15.9893163,25.36 14.4871795,24.88 C13.1431624,24.4 11.957265,23.36 11.1666667,22 L11.1666667,22 Z M30.7735043,26.8 C31.6431624,26.8 32.4337607,26.64 33.224359,26.4 C35.2799145,25.68 36.940171,24.08 37.8098291,21.92 C37.9679487,21.52 37.8098291,21.12 37.4935897,20.96 C35.3589744,19.76 32.9871795,19.44 30.8525641,20.24 C28.7970085,20.96 27.1367521,22.56 26.267094,24.72 C26.1089744,25.12 26.267094,25.52 26.5833333,25.68 C27.9273505,26.4 29.3504274,26.8 30.7735043,26.8 Z M28.0854701,24.56 C28.8760684,23.2 29.982906,22.16 31.4059829,21.68 C32.8290598,21.2 34.4893162,21.28 36.0705128,22 C35.2799145,23.36 34.1730769,24.4 32.75,24.88 C31.2478633,25.36 29.5876069,25.28 28.0854701,24.56 Z M5.00000002,22.56 C4.99992767,22.9601863 5.2108739,23.330005 5.55336036,23.5301192 C5.89584683,23.7302335 6.31782845,23.7302335 6.66031491,23.5301192 C7.00280138,23.330005 7.2137476,22.9601863 7.21367525,22.56 C7.2137476,22.1598137 7.00280138,21.789995 6.66031491,21.5898807 C6.31782845,21.3897665 5.89584683,21.3897665 5.55336036,21.5898807 C5.2108739,21.789995 4.99992767,22.1598137 5.00000002,22.56 L5.00000002,22.56 Z" id="Shape" fill="#5D4EBE"></path>
    </g>
</svg>