<svg xmlns="http://www.w3.org/2000/svg" viewBox="0 0 182.22 172.03"><defs><style>.cls-1{fill:#5d4ebe;}</style></defs><title>Asset 2</title><g id="Layer_2" data-name="Layer 2"><g id="Layer_1-2" data-name="Layer 1"><path class="cls-1" d="M182,91.73a85.59,85.59,0,0,0-5.46-36.4A86.33,86.33,0,0,0,125.19,5,85.53,85.53,0,0,0,88.72.34a78,78,0,0,0-18,3.92,87.4,87.4,0,0,0-8.55,3.4c-1.37.68-2.77,1.3-4.1,2.05l-2,1.07-2,1.15A94.58,94.58,0,0,0,39.17,22.6,90.1,90.1,0,0,0,26.75,36.07a92.87,92.87,0,0,0-9.49,15.76c-1.25,2.81-2.52,5.63-3.51,8.57-.64,1.76-1.19,3.56-1.7,5.38L0,72.16l.22.64L15,70.07l.12,0A71.79,71.79,0,0,1,17,61.4a77.18,77.18,0,0,1,2.8-8.48A79.39,79.39,0,0,1,40.15,23.69,75.49,75.49,0,0,1,54.75,13.2,83,83,0,0,1,89,3.49a84.66,84.66,0,0,1,35.08,4.64A83,83,0,0,1,168.9,125.5c-.57,1-1.18,2.07-1.79,3.1q-12.21-5.23-17.31-16.38a138.65,138.65,0,0,0,12.68-6.31l4.71-.24s-8.07-10-8.35-9.6a83,83,0,0,1-9.71,14c-1.79-4.07-2.63-14.76-2.63-14.76l3.86-4.95s-10.17-.72-12.24-1.06c0,0,0,25.79-11.49,40.52a34.42,34.42,0,0,1-12.92,10.43,30.36,30.36,0,0,1-8.16,2.37,21.4,21.4,0,0,1-8.48-.37l-.4,1.1a22.93,22.93,0,0,0,9,1.34,33,33,0,0,0,9.06-1.65A37.15,37.15,0,0,0,130.3,133a48,48,0,0,0,5.66-7.49,60.56,60.56,0,0,0,4.19-8.37,83.73,83.73,0,0,0,4.34-14.95c0,13.4,7.29,28.55,15,37.15a82.38,82.38,0,0,1-13.66,13.06A83.23,83.23,0,0,1,113.7,167.2a85.81,85.81,0,0,1-17.72,2,75.42,75.42,0,0,1-17.69-2.06A85.77,85.77,0,0,1,46.2,151.75a79.91,79.91,0,0,1-22.9-27.31,66.52,66.52,0,0,1-5.89-16.94,53.79,53.79,0,0,1-.76-17.84,28.66,28.66,0,0,1,7.24-15.87A25.68,25.68,0,0,1,39.4,66.21a37.67,37.67,0,0,1,17.35,2.07,47.17,47.17,0,0,1,14.73,8.53Q62,90.18,40.61,108.33a11.86,11.86,0,0,0-6.75-.22c-1.87.39-11.16,4.57-11.16,4.57l7.35,9.53h.28c1.82-5.84,4.23-9.23,7.22-10.2q3.09,0,6.78,3,11.89,9.17,43.94,7.19c-1.46-1.89,1.22-8.41,6.37-11.59q-30.89,7.3-51.77-.93Q67.2,94.3,84.21,77.27l5.11-1.93L77.45,65.65S73.77,70.34,73,71.4a64.14,64.14,0,0,0-15.36-6.22,44.71,44.71,0,0,0-18.59-1,32.42,32.42,0,0,0-8.87,2.92,26.9,26.9,0,0,0-7.45,5.61,27.25,27.25,0,0,0-5.06,7.8,34.35,34.35,0,0,0-2.45,8.92A56.33,56.33,0,0,0,16,107.78a70.63,70.63,0,0,0,5.85,17.36,83.12,83.12,0,0,0,23,28.3,85.87,85.87,0,0,0,32.78,16.27A78.46,78.46,0,0,0,96,172a84.6,84.6,0,0,0,18.36-1.89A86,86,0,0,0,182,91.73Z"/><path class="cls-1" d="M99,62.5c-.37-.16-.72-.33-1.09-.47a5,5,0,0,0-2.36-.34v.41a5.68,5.68,0,0,1,2.82,2.7,17.27,17.27,0,0,1,1.69,3.71,22.9,22.9,0,0,1,1,3.84,8,8,0,0,1-.07,3.31l8.93-1.4a17.41,17.41,0,0,0-2.76-4.77,27.47,27.47,0,0,0-3.32-3.55,26.72,26.72,0,0,0-3.77-2.86Z"/><path class="cls-1" d="M115.36,49.06a43.91,43.91,0,0,0-8.6-8.83l-.26.32A39.69,39.69,0,0,1,114,50a49.69,49.69,0,0,1,4.74,10.94,45.06,45.06,0,0,1,1.07,23l6,1a50.61,50.61,0,0,0-4.21-25A57.27,57.27,0,0,0,115.36,49.06Z"/><path class="cls-1" d="M120.93,111.14l8,4.21a38.75,38.75,0,0,0,1.59-10.51,23.81,23.81,0,0,0-.53-5.21,14.34,14.34,0,0,0-1.88-4.73l-.38.15a16.06,16.06,0,0,1-1.82,8.82A31.91,31.91,0,0,1,120.93,111.14Z"/><path class="cls-1" d="M87.16,31.67A28.87,28.87,0,0,0,73.87,33.5c-1,.48-2.14.9-3.17,1.44s-2,1.17-3,1.83l-2.82,2.17-2.56,2.49a54.74,54.74,0,0,0-8.11,11.94l9.65,2.94A31.56,31.56,0,0,1,67.14,45a23.18,23.18,0,0,1,8.1-8.72,23.84,23.84,0,0,1,11.89-3.52A24.34,24.34,0,0,1,99.5,35.66l.17-.3A33,33,0,0,0,87.16,31.67Z"/><path class="cls-1" d="M114.58,98.28c10.44-1.4,22.68-10.76,25.88-20.66Q151.7,81.79,156,88a17.37,17.37,0,0,0,3.34,4.58c2.43,2.4,4.74,2.48,6.91.27q2.59-4-.4-8.23c-3.77-3.92-9.56-6.62-19-8.07,3.89-3.88,6.89-7.19,11.12-10.41.21-.22,5.75-.54,5.75-.77-.44,0-7.21-9.43-8.09-9.42-1.93,4.85-7.35,14.45-11.25,20.63-.44,0-3.19-.3-3.62-.29,1.05-4.18,2.16-15.17,2.16-15.17l2.61-3.32s-12.2-1.31-12.19-.88c.76,12.07-.32,20.56-2.73,25.71C125.38,93.86,113.47,98.29,114.58,98.28Z"/><path class="cls-1" d="M85.3,83.52l1,2.82,11.42-.1,3,0,.28,30.62-5.36,7.86s9.89,9.88,10.24,9.86c.58-1.19,11.05-15.56,12.58-17.55,0-.87-.24-1.31-.68-1.31a58,58,0,0,1-8.19,4l-.28-30.95a37.18,37.18,0,0,1,2.93-3L103,81.25l-3.26,3.32S86.18,83.73,85.3,83.52Z"/></g></g></svg>