<?xml version="1.0" encoding="UTF-8"?>
<svg width="32px" height="32px" viewBox="0 0 32 32" version="1.1" xmlns="http://www.w3.org/2000/svg" xmlns:xlink="http://www.w3.org/1999/xlink">
    <!-- Generator: Sketch 64 (93537) - https://sketch.com -->
    <title>icon/32x32/hot</title>
    <desc>Created with Sketch.</desc>
    <g id="icon/32x32/hot" stroke="none" stroke-width="1" fill="none" fill-rule="evenodd">
        <g id="Group-7">
            <rect id="Rectangle" x="0" y="0" width="32" height="32"></rect>
            <path d="M12.0307373,28.609375 C10.4011044,25.1793203 11.2589873,23.207125 12.5450732,21.4067031 C13.9167998,19.348375 14.2598544,17.3766719 14.2598544,17.3766719 C14.2598544,17.3766719 15.3746591,18.7483984 14.9459638,20.9780078 C16.8325185,18.8345312 17.1755732,15.4044766 16.9181591,14.1178984 C21.2051123,17.1192578 23.0921591,23.7219531 20.6051357,28.5237344 C33.8100341,20.9780078 23.8634169,9.74530469 22.1486357,8.54485938 C22.7491044,9.83094531 22.8347451,11.9744219 21.6338076,13.0035859 C19.6621044,5.45785937 14.7741904,4 14.7741904,4 C15.3741669,7.85875 12.7158623,12.0600625 10.1436904,15.2331953 C10.0580498,13.6896953 9.97191694,12.6605313 9.11452631,11.1170313 C8.94324506,13.9471094 6.79927631,16.1762266 6.19929975,19.0058125 C5.42754975,22.8645625 6.7997685,25.6080156 12.0307373,28.609375 Z" id="Path" fill="#ABABAB"></path>
        </g>
    </g>
</svg>