<?xml version="1.0" encoding="UTF-8"?>
<svg width="23px" height="26px" viewBox="0 0 23 26" version="1.1" xmlns="http://www.w3.org/2000/svg" xmlns:xlink="http://www.w3.org/1999/xlink">
    <!-- Generator: Sketch 64 (93537) - https://sketch.com -->
    <title>icon/32x32/question 1</title>
    <desc>Created with Sketch.</desc>
    <g id="design-guide" stroke="none" stroke-width="1" fill="none" fill-rule="evenodd">
        <g id="我的/其他作者-讨论" transform="translate(-69.000000, -787.000000)">
            <g id="list/question/regular-1" transform="translate(16.000000, 616.000000)">
                <g id="card/question/regular-4">
                    <g id="Group-4" transform="translate(48.000000, 168.000000)">
                        <g id="list/name/author-2">
                            <g id="icon/32x32/question">
                                <g id="question">
                                    <rect id="Rectangle" fill="#000000" fill-rule="nonzero" opacity="0" x="0" y="0" width="32" height="32"></rect>
                                    <path d="M7.50909091,29 C7.71818181,29 7.92727274,29 8.03181818,28.8916667 L12.4227273,26.075 C12.9454545,26.2916667 13.4681818,26.4 13.8863636,26.5083333 C14.7227273,26.725 15.6636363,26.8333333 16.5,26.8333333 C22.8772727,26.8333333 28,21.525 28,14.9166667 C28,8.30833332 22.8772727,3 16.5,3 C10.1227273,3 5,8.30833334 5,14.9166667 C5,16.325 5.2090909,17.625 5.62727273,18.925 C5.83636363,19.575 6.14999999,20.3333333 6.56818182,20.9833333 C6.88181818,21.525 7.50909091,21.6333333 8.03181818,21.4166667 C8.55454544,21.0916667 8.6590909,20.4416667 8.45,19.9 C8.13636364,19.3583333 7.92727274,18.8166667 7.71818181,18.275 C7.40454545,17.1916667 7.19545455,16.1083333 7.19545455,15.025 C7.19545455,9.60833334 11.3772727,5.275 16.6045455,5.275 C21.8318182,5.275 26.0136364,9.60833334 26.0136364,15.025 C26.0136364,20.4416667 21.8318182,24.775 16.6045455,24.775 C15.8727273,24.775 15.1409091,24.6666667 14.5136364,24.5583333 C13.9909091,24.45 13.3636364,24.2333333 12.8409091,24.0166667 C12.5272727,23.9083333 12.2136364,23.9083333 11.9,24.125 L8.6590909,26.1833333 L8.6590909,24.3416667 C8.6590909,23.6916667 8.24090908,23.2583333 7.61363635,23.2583333 C6.98636362,23.2583334 6.56818179,23.6916667 6.56818182,24.3416667 L6.56818182,27.9166667 C6.56818182,28.35 6.77727272,28.675 7.09090908,28.8916667 C7.09090908,29 7.29999999,29 7.50909091,29 Z M16.5,18.7083333 C15.8727273,18.7083333 15.4545454,18.275 15.4545454,17.625 L15.4545454,16 C15.4545454,15.35 15.8727273,14.9166667 16.5,14.9166667 C17.65,14.9166667 18.5909091,13.9416667 18.5909091,12.75 C18.5909091,11.5583333 17.65,10.5833333 16.5,10.5833333 C15.35,10.5833333 14.4090909,11.5583333 14.4090909,12.75 C14.4090909,13.4 13.9909091,13.8333333 13.3636364,13.8333333 C12.7363636,13.8333333 12.3181818,13.4 12.3181818,12.75 C12.3181818,10.3666667 14.2,8.41666666 16.5,8.41666666 C18.8,8.41666666 20.6818182,10.3666667 20.6818182,12.75 C20.6818182,14.8083333 19.3227273,16.4333333 17.5454546,16.975 L17.5454546,17.625 C17.5454546,18.275 17.1272727,18.7083333 16.5,18.7083333 Z M15.4545454,20.3333333 C15.4545454,20.9316418 15.9226114,21.4166667 16.5,21.4166667 C17.0773886,21.4166667 17.5454546,20.9316418 17.5454546,20.3333333 C17.5454546,19.7350249 17.0773886,19.25 16.5,19.25 C15.9226114,19.25 15.4545454,19.7350249 15.4545454,20.3333333 L15.4545454,20.3333333 Z" id="Shape" fill="#6B8BFF"></path>
                                </g>
                            </g>
                        </g>
                    </g>
                </g>
            </g>
        </g>
    </g>
</svg>