<?xml version="1.0" encoding="UTF-8"?>
<svg width="23px" height="26px" viewBox="0 0 23 26" version="1.1" xmlns="http://www.w3.org/2000/svg" xmlns:xlink="http://www.w3.org/1999/xlink">
    <!-- Generator: Sketch 64 (93537) - https://sketch.com -->
    <title>icon/32x32/question 1</title>
    <desc>Created with Sketch.</desc>
    <g id="design-guide" stroke="none" stroke-width="1" fill="none" fill-rule="evenodd">
        <g id="交流-首页-发布内容类型" transform="translate(-432.000000, -1403.000000)" fill="#FFFFFF">
            <g id="btn/pop-up-1-copy" transform="translate(403.000000, 1384.000000)">
                <g id="icon/32x32/talk" transform="translate(24.000000, 16.000000)">
                    <path d="M16.5,3 C22.8772727,3 28,8.30833332 28,14.9166667 C28,21.525 22.8772727,26.8333333 16.5,26.8333333 C15.6636363,26.8333333 14.7227273,26.725 13.8863636,26.5083333 C13.4681818,26.4 12.9454545,26.2916667 12.4227273,26.075 L12.4227273,26.075 L8.03181818,28.8916667 C7.92727274,29 7.71818181,29 7.50909091,29 C7.29999999,29 7.09090908,29 7.09090908,28.8916667 C6.77727272,28.675 6.56818182,28.35 6.56818182,27.9166667 L6.56818182,27.9166667 L6.56818182,24.3416667 C6.56818179,23.6916667 6.98636362,23.2583334 7.61363635,23.2583333 C8.24090908,23.2583333 8.6590909,23.6916667 8.6590909,24.3416667 L8.6590909,24.3416667 L8.6590909,26.1833333 L11.9,24.125 C12.2136364,23.9083333 12.5272727,23.9083333 12.8409091,24.0166667 C13.3636364,24.2333333 13.9909091,24.45 14.5136364,24.5583333 C15.1409091,24.6666667 15.8727273,24.775 16.6045455,24.775 C21.8318182,24.775 26.0136364,20.4416667 26.0136364,15.025 C26.0136364,9.60833334 21.8318182,5.275 16.6045455,5.275 C11.3772727,5.275 7.19545455,9.60833334 7.19545455,15.025 C7.19545455,16.1083333 7.40454545,17.1916667 7.71818181,18.275 C7.92727274,18.8166667 8.13636364,19.3583333 8.45,19.9 C8.6590909,20.4416667 8.55454544,21.0916667 8.03181818,21.4166667 C7.50909091,21.6333333 6.88181818,21.525 6.56818182,20.9833333 C6.14999999,20.3333333 5.83636363,19.575 5.62727273,18.925 C5.2090909,17.625 5,16.325 5,14.9166667 C5,8.30833334 10.1227273,3 16.5,3 Z M17,10 C19.7614237,10 22,12.2385763 22,15 C22,17.7614237 19.7614237,20 17,20 C14.2385763,20 12,17.7614237 12,15 C12,12.2385763 14.2385763,10 17,10 Z" id="Combined-Shape"></path>
                </g>
            </g>
        </g>
    </g>
</svg>